<?xml version="1.0" encoding="UTF-8" standalone="no"?>
<!-- Created with Inkscape (http://www.inkscape.org/) -->

<svg
   version="1.1"
   id="svg2"
   xml:space="preserve"
   width="684.72943"
   height="439.87997"
   viewBox="0 0 684.72943 439.87998"
   sodipodi:docname="CHPL_Brandmark_OneColorNavy.svg"
   inkscape:version="1.1 (c68e22c387, 2021-05-23)"
   xmlns:inkscape="http://www.inkscape.org/namespaces/inkscape"
   xmlns:sodipodi="http://sodipodi.sourceforge.net/DTD/sodipodi-0.dtd"
   xmlns="http://www.w3.org/2000/svg"
   xmlns:svg="http://www.w3.org/2000/svg"><defs
     id="defs6" /><sodipodi:namedview
     id="namedview4"
     pagecolor="#ffffff"
     bordercolor="#666666"
     borderopacity="1.0"
     inkscape:pageshadow="2"
     inkscape:pageopacity="0.0"
     inkscape:pagecheckerboard="0"
     showgrid="false"
     inkscape:zoom="0.19709888"
     inkscape:cx="-1215.1261"
     inkscape:cy="892.9528"
     inkscape:window-width="1920"
     inkscape:window-height="1011"
     inkscape:window-x="0"
     inkscape:window-y="0"
     inkscape:window-maximized="1"
     inkscape:current-layer="g10" /><g
     id="g8"
     inkscape:groupmode="layer"
     inkscape:label="ink_ext_XXXXXX"
     transform="matrix(1.3333333,0,0,-1.3333333,-94.681198,2510.5466)"><g
       id="g10"
       transform="scale(0.1)"><path
         d="m 3062.07,15751.9 h -128.21 v 700.2 h 128.21 v -700.2"
         style="fill:#16243a;fill-opacity:1;fill-rule:nonzero;stroke:none"
         id="path182" /><path
         d="m 3306.19,15751.9 h -128.21 v 478.3 h 128.21 v -478.3"
         style="fill:#16243a;fill-opacity:1;fill-rule:nonzero;stroke:none"
         id="path184" /><path
         d="m 3552.1,15919.5 c 24.66,-35.5 67.07,-59.1 115.39,-59.1 72,0 126.24,55.2 126.24,130.2 0,69 -48.32,131.1 -123.28,131.1 -49.3,0 -91.72,-23.6 -118.35,-59.1 z m -128.21,-167.6 v 700.2 h 128.21 v -256.4 c 37.48,29.6 82.85,44.4 135.12,44.4 130.19,0 234.73,-108.5 234.73,-249.5 0,-65.1 -23.68,-124.3 -61.15,-167.7 -42.41,-49.3 -109.47,-80.9 -180.48,-80.9 -48.32,0 -93.7,14.8 -133.15,48.3 v -38.4 h -123.28"
         style="fill:#16243a;fill-opacity:1;fill-rule:nonzero;stroke:none"
         id="path186" /><path
         d="m 4299.34,16116.8 c -8.88,3 -27.62,4.9 -46.35,4.9 -56.22,0 -100.59,-40.4 -116.38,-69 v -300.8 h -128.22 v 478.3 h 123.28 v -48.3 c 28.61,35.5 80.88,58.2 139.07,58.2 18.74,0 29.59,-2 43.39,-4 l -14.79,-119.3"
         style="fill:#16243a;fill-opacity:1;fill-rule:nonzero;stroke:none"
         id="path188" /><path
         d="m 4710.48,16062.6 c -26.63,35.5 -69.04,59.1 -118.36,59.1 -74.95,0 -123.27,-62.1 -123.27,-131.1 0,-75 54.24,-130.2 126.24,-130.2 48.32,0 90.73,23.6 115.39,59.1 z m 128.21,-310.7 h -123.28 v 38.4 c -39.45,-33.5 -84.82,-48.3 -133.14,-48.3 -71.02,0 -138.09,31.6 -180.49,80.9 -37.48,43.4 -61.15,102.6 -61.15,167.7 0,141 104.54,249.5 234.72,249.5 54.25,0 102.58,-17.8 140.06,-48.3 v 38.4 h 123.28 v -478.3"
         style="fill:#16243a;fill-opacity:1;fill-rule:nonzero;stroke:none"
         id="path190" /><path
         d="m 5248.93,16116.8 c -8.88,3 -27.62,4.9 -46.35,4.9 -56.22,0 -100.6,-40.4 -116.38,-69 v -300.8 h -128.22 v 478.3 h 123.28 v -48.3 c 28.61,35.5 80.88,58.2 139.07,58.2 18.74,0 29.59,-2 43.39,-4 l -14.79,-119.3"
         style="fill:#16243a;fill-opacity:1;fill-rule:nonzero;stroke:none"
         id="path192" /><path
         d="m 5388.58,15530 125.61,270.2 -214.01,430 h 141.03 l 140.05,-287 129.2,287 h 135.12 L 5522.71,15530 h -134.13"
         style="fill:#16243a;fill-opacity:1;fill-rule:nonzero;stroke:none"
         id="path194" /><path
         d="m 1183.51,17506.3 c -56.21,-74.9 -127.22,-107.5 -216.975,-107.5 -147.937,0 -256.426,110.5 -256.426,248.6 0,139 111.446,249.5 257.414,249.5 82.847,0 156.817,-38.5 201.197,-95.7 l -90.74,-79.9 c -25.64,33.6 -64.1,57.2 -110.457,57.2 -73.964,0 -129.199,-58.2 -129.199,-131.1 0,-75 54.242,-130.2 132.156,-130.2 52.28,0 93.69,31.5 114.41,63.1 l 98.62,-74"
         style="fill:#16243a;fill-opacity:1;fill-rule:nonzero;stroke:none"
         id="path196" /><path
         d="m 1377.58,17408.7 h -128.23 v 478.3 h 128.23 v -478.3"
         style="fill:#16243a;fill-opacity:1;fill-rule:nonzero;stroke:none"
         id="path198" /><path
         d="m 1496,17408.7 v 478.3 h 123.29 v -38.4 c 36.49,29.5 81.86,48.3 135.12,48.3 66.07,0 126.24,-29.6 165.69,-77 31.55,-37.4 49.31,-85.8 49.31,-167.6 v -243.6 h -128.22 v 253.4 c 0,47.4 -10.84,72 -28.6,89.8 -16.77,16.8 -42.41,26.6 -71.99,26.6 -54.25,0 -98.63,-34.5 -116.38,-59.1 v -310.7 H 1496"
         style="fill:#16243a;fill-opacity:1;fill-rule:nonzero;stroke:none"
         id="path200" /><path
         d="m 2520.29,17506.3 c -56.21,-74.9 -127.23,-107.5 -216.98,-107.5 -147.94,0 -256.43,110.5 -256.43,248.6 0,139 111.45,249.5 257.42,249.5 82.85,0 156.82,-38.5 201.19,-95.7 l -90.73,-79.9 c -25.65,33.6 -64.11,57.2 -110.46,57.2 -73.97,0 -129.2,-58.2 -129.2,-131.1 0,-75 54.24,-130.2 132.16,-130.2 52.27,0 93.69,31.5 114.4,63.1 l 98.63,-74"
         style="fill:#16243a;fill-opacity:1;fill-rule:nonzero;stroke:none"
         id="path202" /><path
         d="m 2714.34,17408.7 h -128.21 v 478.3 h 128.21 v -478.3"
         style="fill:#16243a;fill-opacity:1;fill-rule:nonzero;stroke:none"
         id="path204" /><path
         d="m 2832.78,17408.7 v 478.3 h 123.28 v -38.4 c 36.49,29.5 81.86,48.3 135.12,48.3 66.07,0 126.24,-29.6 165.69,-77 31.56,-37.4 49.31,-85.8 49.31,-167.6 v -243.6 h -128.21 v 253.4 c 0,47.4 -10.85,72 -28.6,89.8 -16.77,16.8 -42.41,26.6 -72,26.6 -54.24,0 -98.63,-34.5 -116.38,-59.1 v -310.7 h -128.21"
         style="fill:#16243a;fill-opacity:1;fill-rule:nonzero;stroke:none"
         id="path206" /><path
         d="m 3422.09,17408.7 v 478.3 h 123.28 v -38.4 c 36.51,29.5 81.87,48.3 135.13,48.3 66.08,0 126.24,-29.6 165.68,-77 31.57,-37.4 49.32,-85.8 49.32,-167.6 v -243.6 h -128.21 v 253.4 c 0,47.4 -10.85,72 -28.61,89.8 -16.76,16.8 -42.4,26.6 -71.99,26.6 -54.25,0 -98.62,-34.5 -116.37,-59.1 v -310.7 h -128.23"
         style="fill:#16243a;fill-opacity:1;fill-rule:nonzero;stroke:none"
         id="path208" /><path
         d="m 4342.83,17719.4 c -26.64,35.5 -69.05,59.1 -118.35,59.1 -74.96,0 -123.29,-62.1 -123.29,-131.1 0,-75 54.24,-130.2 126.24,-130.2 48.34,0 90.74,23.6 115.4,59.1 z m 128.21,-310.7 h -123.28 v 38.4 c -39.46,-33.5 -84.82,-48.3 -133.15,-48.3 -71.01,0 -138.07,31.6 -180.49,80.9 -37.48,43.4 -61.15,102.6 -61.15,167.7 0,141 104.55,249.5 234.74,249.5 54.25,0 102.57,-17.8 140.05,-48.3 v 38.4 h 123.28 v -478.3"
         style="fill:#16243a;fill-opacity:1;fill-rule:nonzero;stroke:none"
         id="path210" /><path
         d="m 4948.94,17408.7 c -16.77,-5.9 -55.24,-9.9 -79.89,-9.9 -76.93,0 -133.15,25.7 -165.7,69 -24.65,32.6 -35.5,75 -35.5,143.1 v 167.6 H 4534.7 v 108.5 h 133.15 v 133.2 h 128.21 V 17887 h 157.8 v -108.5 h -157.8 v -182.4 c 0,-29.6 4.93,-47.4 15.78,-60.2 12.82,-14.8 33.53,-23.7 65.1,-23.7 18.74,0 43.4,3 52.26,5 l 19.74,-108.5"
         style="fill:#16243a;fill-opacity:1;fill-rule:nonzero;stroke:none"
         id="path212" /><path
         d="M 5169.93,17408.7 H 5041.7 v 478.3 h 128.23 v -478.3"
         style="fill:#16243a;fill-opacity:1;fill-rule:nonzero;stroke:none"
         id="path214" /><path
         d="m 1557.67,16747.4 c 24.66,-35.5 67.06,-59.2 115.39,-59.2 72,0 126.25,55.3 126.25,130.2 0,69.1 -48.33,131.2 -123.29,131.2 -49.31,0 -91.72,-23.7 -118.35,-59.2 z m -128.21,310.7 h 123.28 v -38.5 c 37.48,30.6 85.8,48.4 140.05,48.4 130.19,0 234.73,-108.5 234.73,-249.6 0,-65.1 -22.68,-124.2 -60.16,-167.6 -42.41,-49.3 -110.46,-80.9 -181.48,-80.9 -48.32,0 -89.75,13.8 -128.21,43.4 v -255.5 h -128.21 v 700.3"
         style="fill:#16243a;fill-opacity:1;fill-rule:nonzero;stroke:none"
         id="path216" /><path
         d="m 2467.05,17058.1 v -478.3 h -123.28 v 38.4 c -37.48,-33.5 -82.84,-48.3 -129.2,-48.3 -66.08,0 -125.25,30.6 -162.73,76.9 -30.58,37.5 -48.33,86.8 -48.33,157.8 v 253.5 h 128.22 v -258.4 c 0,-43.4 8.87,-65.1 23.66,-81.9 19.74,-21.7 47.34,-29.6 72,-29.6 54.24,0 93.7,36.5 111.45,59.2 v 310.7 h 128.21"
         style="fill:#16243a;fill-opacity:1;fill-rule:nonzero;stroke:none"
         id="path218" /><path
         d="m 2714.55,16747.4 c 24.66,-35.5 67.07,-59.2 115.4,-59.2 71.99,0 126.24,55.3 126.24,130.2 0,69.1 -48.33,131.2 -123.29,131.2 -49.31,0 -91.72,-23.7 -118.35,-59.2 z m -128.21,-167.6 v 700.2 h 128.21 v -256.4 c 37.48,29.6 82.85,44.4 135.12,44.4 130.19,0 234.73,-108.5 234.73,-249.6 0,-65.1 -23.67,-124.2 -61.14,-167.6 -42.42,-49.3 -109.48,-80.9 -180.49,-80.9 -48.33,0 -93.69,14.8 -133.15,48.3 v -38.4 h -123.28"
         style="fill:#16243a;fill-opacity:1;fill-rule:nonzero;stroke:none"
         id="path220" /><path
         d="m 3306.18,16579.8 h -128.21 v 700.2 h 128.21 v -700.2"
         style="fill:#16243a;fill-opacity:1;fill-rule:nonzero;stroke:none"
         id="path222" /><path
         d="m 3550.31,16579.8 h -128.22 v 478.3 h 128.22 v -478.3"
         style="fill:#16243a;fill-opacity:1;fill-rule:nonzero;stroke:none"
         id="path224" /><path
         d="m 4106.35,16677.4 c -56.22,-75 -127.24,-107.5 -216.98,-107.5 -147.94,0 -256.43,110.5 -256.43,248.5 0,139.1 111.45,249.6 257.41,249.6 82.85,0 156.82,-38.5 201.21,-95.7 l -90.75,-79.9 c -25.63,33.5 -64.1,57.2 -110.46,57.2 -73.96,0 -129.19,-58.2 -129.19,-131.2 0,-74.9 54.23,-130.2 132.15,-130.2 52.28,0 93.7,31.6 114.41,63.2 l 98.63,-74"
         style="fill:#16243a;fill-opacity:1;fill-rule:nonzero;stroke:none"
         id="path226" /><path
         d="m 1313.46,18138.5 c 46.36,0 83.84,-35.5 83.84,-81.9 0,-46.3 -37.48,-81.8 -83.84,-81.8 -46.35,0 -83.83,35.5 -83.83,81.8 0,46.4 37.48,81.9 83.83,81.9"
         style="fill:#16243a;fill-opacity:1;fill-rule:nonzero;stroke:none"
         id="path228" /><path
         d="m 2650.24,18138.5 c 46.36,0 83.83,-35.5 83.83,-81.9 0,-46.3 -37.47,-81.8 -83.83,-81.8 -46.35,0 -83.83,35.5 -83.83,81.8 0,46.4 37.48,81.9 83.83,81.9"
         style="fill:#16243a;fill-opacity:1;fill-rule:nonzero;stroke:none"
         id="path230" /><path
         d="m 3486.2,17309.6 c 46.35,0 83.83,-35.5 83.83,-81.9 0,-46.3 -37.48,-81.8 -83.83,-81.8 -46.35,0 -83.83,35.5 -83.83,81.8 0,46.4 37.48,81.9 83.83,81.9"
         style="fill:#16243a;fill-opacity:1;fill-rule:nonzero;stroke:none"
         id="path232" /><path
         d="m 3239.29,16481.7 c 46.35,0 83.83,-35.5 83.83,-81.8 0,-46.4 -37.48,-81.9 -83.83,-81.9 -46.36,0 -83.83,35.5 -83.83,81.9 0,46.3 37.47,81.8 83.83,81.8"
         style="fill:#16243a;fill-opacity:1;fill-rule:nonzero;stroke:none"
         id="path234" /><path
         d="m 5105.81,18138.5 c 46.36,0 83.83,-35.5 83.83,-81.9 0,-46.3 -37.47,-81.8 -83.83,-81.8 -46.35,0 -83.82,35.5 -83.82,81.8 0,46.4 37.47,81.9 83.82,81.9"
         style="fill:#16243a;fill-opacity:1;fill-rule:nonzero;stroke:none"
         id="path236" /><path
         d="m 4485.04,18276.5 -27.63,-103.5 93.13,-24.9 -10.64,-39.9 -206.99,55.3 10.66,39.9 78.36,-20.9 27.63,103.5 -78.35,20.9 10.67,39.9 206.96,-55.3 -10.65,-39.9 -93.15,24.9"
         style="fill:#16243a;fill-opacity:1;fill-rule:nonzero;stroke:none"
         id="path238" /><path
         d="m 4585.21,18457.3 c -13.76,-0.4 -27.33,-7 -36.09,-19.6 -13.31,-19.1 -6.1,-42.4 11.47,-54.7 19.08,-13.3 42.77,-9.3 55.57,9 8.58,12.3 10.09,27.3 5.44,39.9 z m 101.83,-22.6 -21.9,-31.3 -9.79,6.8 c 1.53,-16 -2.78,-30.2 -11.36,-42.5 -12.62,-18 -32.56,-29.5 -52.65,-31.5 -17.69,-1.8 -36.96,2.7 -53.52,14.2 -35.89,25.1 -44.92,71 -21.79,104.1 9.64,13.8 22.74,22.9 37.19,27 l -9.79,6.9 21.91,31.3 121.7,-85"
         style="fill:#16243a;fill-opacity:1;fill-rule:nonzero;stroke:none"
         id="path240" /><path
         d="m 4699.24,18459.9 -80.55,124.7 32.14,20.7 6.48,-10 c 4.12,15.1 13.45,26.6 25.53,34.4 16.96,10.9 37.11,13 54.52,7.5 3.21,17 13.08,36.1 31.59,48.1 17.23,11.1 38.65,14 56.64,8.2 14.3,-4.6 27.22,-14.5 39.18,-33 l 42.67,-66.1 -33.41,-21.6 -43.51,67.4 c -7.3,11.3 -13.28,15.5 -19.96,17.3 -8.79,2.4 -17.31,-0.2 -23.73,-4.4 -14.4,-9.3 -19.24,-26.6 -19.45,-35.9 3.16,-3.7 6.68,-8 9.99,-13.2 l 42.68,-66 -33.41,-21.6 -43.51,67.3 c -7.32,11.3 -13.27,15.5 -19.96,17.4 -8.78,2.3 -17.32,-0.3 -23.74,-4.4 -14.14,-9.2 -18.26,-25.3 -19.08,-34.2 l 52.31,-81 -33.42,-21.6"
         style="fill:#16243a;fill-opacity:1;fill-rule:nonzero;stroke:none"
         id="path242" /><path
         d="m 4976.54,18601.2 -38.35,-10.5 -39.37,143.1 38.35,10.5 z m -79.24,213.1 c 13.86,3.8 27.99,-3.7 31.8,-17.6 3.81,-13.9 -4.48,-27.6 -18.33,-31.4 -13.87,-3.8 -28,3.7 -31.82,17.6 -3.82,13.9 4.47,27.6 18.35,31.4"
         style="fill:#16243a;fill-opacity:1;fill-rule:nonzero;stroke:none"
         id="path244" /><path
         d="m 5051.96,18613.8 -39.45,-5.3 -28.44,215.4 39.43,5.2 28.46,-215.3"
         style="fill:#16243a;fill-opacity:1;fill-rule:nonzero;stroke:none"
         id="path246" /><path
         d="m 5196.93,18611.6 c -5.31,-1.5 -17.29,-2.1 -24.92,-1.6 -23.83,1.4 -40.8,10.3 -50.1,24.3 -7.05,10.6 -9.65,23.9 -8.43,45 l 3.02,51.9 -41.24,2.4 1.94,33.6 41.25,-2.4 2.39,41.3 39.72,-2.3 -2.39,-41.3 48.89,-2.8 -1.96,-33.6 -48.89,2.8 -3.28,-56.5 c -0.52,-9.2 0.68,-14.7 3.81,-18.9 3.7,-4.8 9.96,-8 19.75,-8.5 5.8,-0.4 13.49,0.1 16.29,0.6 l 4.15,-34"
         style="fill:#16243a;fill-opacity:1;fill-rule:nonzero;stroke:none"
         id="path248" /><path
         d="m 5292.47,18619.6 c 22.09,-7.2 42.87,4.9 49.86,26.1 6.99,21.3 -2.38,43.7 -24.47,51 -22.09,7.3 -42.95,-5.2 -49.96,-26.4 -6.99,-21.3 2.48,-43.4 24.57,-50.7 z m 36.89,111.9 c 42.72,-14 64.17,-57.5 50.76,-98.2 -13.42,-40.7 -56.42,-62.6 -99.14,-48.6 -42.74,14.1 -64.28,57.3 -50.86,98 13.41,40.7 56.5,62.9 99.24,48.8"
         style="fill:#16243a;fill-opacity:1;fill-rule:nonzero;stroke:none"
         id="path250" /><path
         d="m 5373.38,18553.5 86.19,120.9 31.16,-22.2 -6.94,-9.8 c 14.56,0.9 29.4,-2.5 42.85,-12.1 16.7,-11.9 26.58,-30.2 28,-49.3 1.22,-15.2 -3,-30.6 -17.75,-51.2 l -43.9,-61.6 -32.38,23.1 45.67,64 c 8.53,12 10.23,20.2 8.95,27.9 -1.22,7.2 -5.92,14.4 -13.4,19.7 -13.7,9.8 -31.13,9 -40.06,6 l -55.99,-78.5 -32.4,23.1"
         style="fill:#16243a;fill-opacity:1;fill-rule:nonzero;stroke:none"
         id="path252" /><path
         d="m 5673.94,18411.7 c -37.04,-18.9 -50.84,-61.8 -31.98,-98.6 12.7,-24.7 33.9,-36.6 54.08,-40.3 l -9.63,-37 c -30.17,5.9 -59.68,26.5 -77.56,61.4 -30.45,59.4 -8.51,123.2 46.22,151.3 54.74,28.1 119.14,9.2 149.6,-50.2 14.52,-28.3 16.33,-58 8.52,-83.7 l -37.21,10.9 c 5.57,17.3 5.49,37.5 -4.14,56.3 -18.57,36.2 -61.69,48.5 -97.9,29.9"
         style="fill:#16243a;fill-opacity:1;fill-rule:nonzero;stroke:none"
         id="path254" /><path
         d="m 5694.23,18142.8 c 3.41,-23 23.63,-36.1 45.72,-32.9 22.1,3.3 37.93,21.8 34.53,44.8 -3.42,23 -23.94,36 -46.03,32.8 -22.11,-3.3 -37.64,-21.7 -34.22,-44.7 z m 116.57,17.3 c 6.62,-44.5 -22.6,-83.2 -65,-89.5 -42.39,-6.3 -81.29,22.3 -87.9,66.8 -6.61,44.5 22.31,83.1 64.69,89.4 42.39,6.3 81.6,-22.2 88.21,-66.7"
         style="fill:#16243a;fill-opacity:1;fill-rule:nonzero;stroke:none"
         id="path256" /><path
         d="m 5796.79,17879.4 -146.76,22.3 5.75,37.8 11.78,-1.8 c -8.53,13 -10.95,27.6 -8.81,41.9 3.08,20.3 15.22,37 31.19,46.3 12.92,7.7 28.87,10.8 50.66,7.5 l 77.77,-11.8 -5.96,-39.3 -79.3,12 c -13.3,2 -20.38,0.3 -26.21,-3.5 -7.58,-5 -11.28,-13.1 -12.42,-20.7 -2.53,-16.6 6.83,-30.4 12.96,-36.9 l 95.32,-14.5 -5.97,-39.3"
         style="fill:#16243a;fill-opacity:1;fill-rule:nonzero;stroke:none"
         id="path258" /><path
         d="m 5641.62,17873.6 133.42,-65 -16.76,-34.4 -10.73,5.3 c 3.3,-14.2 2.37,-29.4 -4.87,-44.3 -8.98,-18.4 -25.41,-31.2 -43.98,-35.7 -14.74,-3.8 -30.62,-2.1 -53.45,9 l -67.95,33.1 17.43,35.7 70.68,-34.4 c 13.22,-6.4 21.57,-6.8 28.93,-4.2 6.95,2.4 13.17,8.2 17.21,16.5 7.36,15.1 3.77,32.2 -0.71,40.5 l -86.64,42.2 17.42,35.7"
         style="fill:#16243a;fill-opacity:1;fill-rule:nonzero;stroke:none"
         id="path260" /><path
         d="m 5486.23,17638.5 c 2.08,5.1 9.11,14.8 14.19,20.5 15.87,17.9 33.41,25.6 50.19,24.2 12.63,-1 24.7,-7.2 40.47,-21.3 l 38.87,-34.6 27.46,30.9 25.14,-22.4 -27.46,-30.8 30.85,-27.5 -26.44,-29.7 -30.86,27.5 -32.56,-36.6 -25.15,22.4 32.56,36.5 -42.29,37.7 c -6.86,6.1 -11.99,8.6 -17.2,8.7 -6.08,0.1 -12.4,-2.9 -18.91,-10.2 -3.87,-4.3 -8.26,-10.6 -9.65,-13.1 l -29.21,17.8"
         style="fill:#16243a;fill-opacity:1;fill-rule:nonzero;stroke:none"
         id="path262" /><path
         d="m 5419.76,17677.5 13.46,-96.6 128.11,-76.1 -36.79,-23.7 -84.76,51.3 14.55,-96.6 -35.23,-22.7 -34.32,241.8 34.98,22.6"
         style="fill:#16243a;fill-opacity:1;fill-rule:nonzero;stroke:none"
         id="path264" /></g></g></svg>
